<svg width="43" height="41" viewBox="0 0 43 41" fill="none" xmlns="http://www.w3.org/2000/svg">
<path d="M22.2328 26.7221C22.2333 28.9662 21.5453 31.1564 20.2617 32.997C18.978 34.8377 17.1606 36.2403 15.0546 37.0153C12.9486 37.7904 10.6555 37.9006 8.48492 37.3312C6.31429 36.7619 4.37062 35.5402 2.91627 33.8312C1.46099 31.4847 0.944498 28.6756 1.46996 25.9649C1.99543 23.2543 3.52417 20.8416 5.75083 19.2088C7.97749 17.5761 10.7381 16.8435 13.4814 17.1573C16.2246 17.4711 18.7485 18.8082 20.5489 20.9016C21.6493 22.6435 22.2332 24.6618 22.2328 26.7221Z" fill="white"/>
<path d="M5.86719 28.7019C6.66089 31.746 9.46842 33.7785 12.4285 33.5731C13.735 33.4636 14.9761 32.9548 15.9835 32.1156C16.9908 31.2765 17.7155 30.1476 18.0591 28.8824" stroke="#4D2C19" stroke-width="1.55628" stroke-miterlimit="10" stroke-linecap="round"/>
<path d="M41.7496 26.3517C41.7501 28.5957 41.0621 30.7859 39.7785 32.6266C38.4948 34.4673 36.6774 35.8698 34.5714 36.6449C32.4654 37.4199 30.1724 37.5302 28.0017 36.9608C25.8311 36.3914 23.8874 35.1698 22.4331 33.4608C20.9589 31.1133 20.4286 28.2946 20.9487 25.5718C21.4688 22.8491 23.0008 20.4244 25.2364 18.7855C27.472 17.1467 30.2454 16.4153 32.9984 16.7386C35.7515 17.0619 38.28 18.4159 40.0751 20.5281C41.1728 22.2719 41.7534 24.2912 41.7496 26.3517Z" fill="white"/>
<path d="M25.3857 28.322C26.1763 31.3691 28.987 33.4016 31.9439 33.1962C33.246 33.0853 34.4828 32.5785 35.4883 31.7439C36.4938 30.9092 37.2196 29.7867 37.5683 28.5274" stroke="#4D2C19" stroke-width="1.55628" stroke-miterlimit="10" stroke-linecap="round"/>
<path d="M33.0772 12.1056C33.0769 14.3489 32.3886 16.5382 31.1051 18.3781C29.8216 20.218 28.0047 21.62 25.8995 22.3949C23.7942 23.1698 21.5019 23.2804 19.3318 22.7117C17.1618 22.143 15.2183 20.9225 13.7637 19.2146C12.3019 16.8671 11.781 14.0539 12.3055 11.3386C12.83 8.62333 14.361 6.20648 16.592 4.57224C18.823 2.93799 21.589 2.20704 24.3361 2.52583C27.0831 2.84462 29.6083 4.18959 31.4057 6.29132C32.5006 8.03273 33.0801 10.0486 33.0772 12.1056Z" fill="white"/>
<path d="M32.4015 11.9654C32.4006 14.5392 31.4942 17.0307 29.8409 19.0033C28.1876 20.976 25.893 22.304 23.359 22.7548C20.8249 23.2056 18.213 22.7503 15.9809 21.4688C13.7488 20.1874 12.0387 18.1614 11.1503 15.7457C10.2619 13.3301 10.2518 10.6789 11.1217 8.25654C11.9917 5.83419 13.6862 3.7952 15.9085 2.49672C18.1308 1.19824 20.7391 0.72309 23.2765 1.15451C25.8139 1.58592 28.1186 2.8964 29.7869 4.85636C31.4754 6.84012 32.4023 9.36035 32.4015 11.9654Z" stroke="#4D2C19" stroke-width="1.55628" stroke-miterlimit="10"/>
<path d="M15.3447 12.3389C16.1384 15.3861 18.9491 17.4186 21.906 17.2132C23.2115 17.0999 24.4508 16.5888 25.4566 15.7489C26.4624 14.909 27.1862 13.7807 27.5304 12.5163" stroke="#4D2C19" stroke-width="1.55628" stroke-miterlimit="10" stroke-linecap="round"/>
<path d="M22.9249 28.3188C22.9248 30.8927 22.0189 33.3845 20.3661 35.3577C18.7132 37.3308 16.4188 38.6595 13.8847 39.1108C11.3506 39.5622 8.73851 39.1074 6.50604 37.8263C4.27357 36.5451 2.5631 34.5193 1.6743 32.1036C0.785493 29.688 0.775043 27.0367 1.64478 24.6141C2.51451 22.1915 4.20897 20.1523 6.43127 18.8536C8.65357 17.5548 11.262 17.0795 13.7996 17.5109C16.3371 17.9422 18.642 19.2527 20.3103 21.2128C21.9979 23.1959 22.9247 25.7148 22.9249 28.3188Z" stroke="#4D2C19" stroke-width="1.55628" stroke-miterlimit="10"/>
<path d="M42.129 27.948C42.1281 30.5218 41.2217 33.0133 39.5684 34.986C37.9152 36.9586 35.6205 38.2866 33.0865 38.7374C30.5524 39.1882 27.9406 38.7329 25.7085 37.4514C23.4763 36.17 21.7663 34.144 20.8779 31.7283C19.9894 29.3127 19.9793 26.6615 20.8493 24.2392C21.7192 21.8168 23.4138 19.7778 25.636 18.4793C27.8583 17.1808 30.4666 16.7057 33.004 17.1371C35.5415 17.5685 37.8462 18.879 39.5144 20.839C41.2027 22.8229 42.1296 25.343 42.129 27.948Z" stroke="#4D2C19" stroke-width="1.55628" stroke-miterlimit="10"/>
</svg>
