<svg width="29" height="40" viewBox="0 0 29 40" fill="none" xmlns="http://www.w3.org/2000/svg">
<path opacity="0.5" d="M20.9899 14.7743H6.21502C5.85788 14.7743 5.56836 15.0638 5.56836 15.421V17.0362C5.56836 17.3934 5.85788 17.6829 6.21502 17.6829H20.9899C21.347 17.6829 21.6366 17.3934 21.6366 17.0362V15.421C21.6366 15.0638 21.347 14.7743 20.9899 14.7743Z" fill="#F3EBD9"/>
<path opacity="0.5" d="M20.4445 14.7743H6.89471C6.53757 14.7743 6.24805 15.0638 6.24805 15.421V17.0362C6.24805 17.3934 6.53757 17.6829 6.89471 17.6829H20.4445C20.8016 17.6829 21.0912 17.3934 21.0912 17.0362V15.421C21.0912 15.0638 20.8016 14.7743 20.4445 14.7743Z" fill="white"/>
<path opacity="0.5" d="M17.4137 35.6475C17.3707 35.765 17.3168 35.8783 17.2528 35.9858C17.089 36.2604 16.8828 36.5072 16.6416 36.7171L15.0754 38.1359C14.6813 38.4934 14.1682 38.6915 13.6361 38.6915C13.104 38.6915 12.5909 38.4934 12.1968 38.1359C11.8094 37.7866 11.4237 37.4356 11.0399 37.0827C10.6324 36.7534 10.2845 36.3565 10.0113 35.9094C9.67086 35.2299 9.54615 34.4626 9.65385 33.7102C9.76299 32.6025 9.78482 28.6734 9.76026 22.8753C9.76026 22.376 9.76026 21.8603 9.76026 21.3337C9.76026 20.1959 9.76026 18.9954 9.7357 17.7402H17.5884C17.5884 18.3278 17.5884 18.9026 17.5884 19.4646C17.5884 19.6856 17.5884 19.9039 17.5884 20.1195C17.5638 28.0322 17.5693 33.3473 17.6347 33.9858C17.685 34.5492 17.6095 35.1168 17.4137 35.6475Z" fill="white"/>
<path d="M19.0856 32.0076L11.293 35.9558" stroke="#4D2C19" stroke-width="1.36426" stroke-miterlimit="10"/>
<path d="M22.0891 15.0471H8.38925C7.73525 15.0471 7.20508 15.5773 7.20508 16.2313V16.7715C7.20508 17.4255 7.73525 17.9557 8.38925 17.9557H22.0891C22.7431 17.9557 23.2733 17.4255 23.2733 16.7715V16.2313C23.2733 15.5773 22.7431 15.0471 22.0891 15.0471Z" stroke="#4D2C19" stroke-width="1.36426" stroke-miterlimit="10"/>
<path opacity="0.5" d="M25.5168 14.7334H1.26308C-0.101178 8.51782 -0.783313 4.4305 1.61505 2.41413C3.31764 0.981658 6.27808 0.850698 8.35721 1.57103C11.0475 2.50145 11.4159 4.53966 13.4159 4.52056C15.4159 4.50146 15.5987 2.53965 18.4718 1.57103C20.1689 0.998038 22.7337 0.86708 24.3736 1.99123C27.2576 3.97213 26.5236 9.32818 25.5168 14.7334Z" fill="white"/>
<path d="M27.1535 15.0062H2.8998C1.53554 8.79064 0.853406 4.70332 3.25177 2.68695C4.95436 1.25448 7.9148 1.12353 9.99393 1.84385C12.6842 2.77428 13.0526 4.81249 15.0526 4.79339C17.0526 4.77429 17.2354 2.81247 20.1085 1.84385C21.8057 1.27087 24.3705 1.13991 26.0103 2.26405C28.8943 4.24495 28.1604 9.60101 27.1535 15.0062Z" stroke="#4D2C19" stroke-width="1.36426" stroke-miterlimit="10"/>
<path d="M13.1533 3.9967C15.2148 5.52926 17.7555 6.27614 20.3184 6.10311" stroke="#4D2C19" stroke-width="1.36426" stroke-miterlimit="10" stroke-linecap="round"/>
<path d="M19.0503 35.9203C19.0072 36.0378 18.9533 36.1511 18.8893 36.2586C18.7256 36.5332 18.5193 36.78 18.2781 36.9899L16.3681 38.717C16.0672 38.9893 15.6758 39.14 15.2699 39.14C14.8641 39.14 14.4727 38.9893 14.1717 38.717C13.6724 38.2613 13.1703 37.8084 12.6737 37.3527C12.2662 37.0234 11.9183 36.6266 11.6451 36.1795C11.3047 35.4999 11.1799 34.7327 11.2876 33.9803C11.3968 32.8725 11.4186 28.9435 11.3941 23.1454C11.3941 22.6461 11.3941 22.1304 11.3941 21.6038C11.3941 20.466 11.3804 19.2654 11.3695 18.0103H19.2222C19.2222 18.5979 19.2222 19.1727 19.2222 19.7348C19.2222 19.9558 19.2222 20.174 19.2222 20.3896C19.1976 28.3023 19.2031 33.6174 19.2685 34.2559C19.3201 34.82 19.2455 35.3885 19.0503 35.9203Z" stroke="#4D2C19" stroke-width="1.36426" stroke-miterlimit="10"/>
<path d="M19.0856 21.0144L11.293 24.9653" stroke="#4D2C19" stroke-width="1.36426" stroke-miterlimit="10"/>
<path d="M15.7319 17.86L11.1719 20.3933" stroke="#4D2C19" stroke-width="1.36426" stroke-miterlimit="10"/>
<path d="M19.0856 26.848L11.293 30.7961" stroke="#4D2C19" stroke-width="1.36426" stroke-miterlimit="10"/>
</svg>
