<svg width="36" height="39" viewBox="0 0 36 39" fill="none" xmlns="http://www.w3.org/2000/svg">
<path opacity="0.5" d="M34.4948 26.8582V36.2517C34.4948 36.7898 34.2811 37.3059 33.9005 37.6864C33.52 38.0669 33.004 38.2807 32.4658 38.2807H2.45986C2.19314 38.2811 1.92897 38.2289 1.68244 38.1271C1.43591 38.0253 1.21186 37.8759 1.02312 37.6875C0.834381 37.499 0.68464 37.2752 0.582477 37.0288C0.480315 36.7825 0.427734 36.5184 0.427734 36.2517V26.8582C0.427734 26.3192 0.641833 25.8023 1.02293 25.4212C1.40403 25.0401 1.9209 24.826 2.45986 24.826H10.0968C10.191 24.8804 10.2694 24.9584 10.3243 25.0523C10.3792 25.1462 10.4087 25.2527 10.4099 25.3615V32.0277C10.4099 32.1888 10.4739 32.3434 10.5878 32.4573C10.7017 32.5712 10.8562 32.6352 11.0173 32.6352H23.1256C23.2069 32.6377 23.2879 32.6238 23.3638 32.5944C23.4397 32.5651 23.5089 32.5207 23.5673 32.464C23.6257 32.4074 23.6721 32.3396 23.7038 32.2646C23.7355 32.1897 23.7518 32.1091 23.7518 32.0277V25.3771C23.753 25.2684 23.7825 25.1618 23.8374 25.0679C23.8923 24.974 23.9707 24.8961 24.0649 24.8417H32.4784C33.0119 24.8458 33.5224 25.0596 33.8997 25.4368C34.277 25.8141 34.4907 26.3246 34.4948 26.8582Z" fill="white"/>
<path d="M34.7628 26.8582V36.2517C34.762 36.7901 34.5475 37.3061 34.1665 37.6866C33.7855 38.067 33.2691 38.2807 32.7307 38.2807H2.72158C2.18317 38.2807 1.66675 38.067 1.28574 37.6866C0.904731 37.3061 0.690283 36.7901 0.689453 36.2517V26.8582C0.690281 26.3195 0.90463 25.8031 1.28555 25.4222C1.66647 25.0412 2.18288 24.8269 2.72158 24.826H10.3585C10.4527 24.8804 10.5311 24.9584 10.586 25.0523C10.6409 25.1462 10.6704 25.2527 10.6716 25.3615V32.0277C10.6716 32.1888 10.7356 32.3434 10.8495 32.4573C10.9634 32.5712 11.1179 32.6352 11.279 32.6352H23.3873C23.5484 32.6352 23.7029 32.5712 23.8168 32.4573C23.9307 32.3434 23.9947 32.1888 23.9947 32.0277V25.3771C23.9959 25.2684 24.0254 25.1618 24.0803 25.0679C24.1352 24.974 24.2137 24.8961 24.3078 24.8417H32.7213C33.2589 24.84 33.7754 25.0512 34.1579 25.429C34.5404 25.8068 34.7578 26.3206 34.7628 26.8582Z" fill="white"/>
<path d="M35.0253 25.0114V34.4049C35.0257 34.6719 34.9734 34.9364 34.8715 35.1831C34.7695 35.4298 34.6198 35.654 34.431 35.8428C34.2422 36.0316 34.0181 36.1812 33.7713 36.2832C33.5246 36.3852 33.2602 36.4375 32.9932 36.4371H2.98407C2.71736 36.4371 2.45327 36.3845 2.2069 36.2823C1.96052 36.1802 1.7367 36.0304 1.54825 35.8417C1.3598 35.6529 1.2104 35.4289 1.10862 35.1824C1.00684 34.9358 0.954669 34.6717 0.955081 34.4049V25.0114C0.954669 24.7447 1.00684 24.4806 1.10862 24.234C1.2104 23.9875 1.3598 23.7634 1.54825 23.5747C1.7367 23.386 1.96052 23.2362 2.2069 23.1341C2.45327 23.0319 2.71736 22.9793 2.98407 22.9793H10.6241C10.7191 23.0319 10.7983 23.1091 10.8534 23.2027C10.9085 23.2963 10.9374 23.403 10.9372 23.5116V30.1497C10.9347 30.2308 10.9485 30.3115 10.9777 30.3872C11.0069 30.4629 11.051 30.5319 11.1073 30.5903C11.1636 30.6486 11.2311 30.6952 11.3056 30.727C11.3802 30.7589 11.4604 30.7755 11.5416 30.7759H23.6592C23.8203 30.7759 23.9748 30.7119 24.0887 30.598C24.2026 30.4841 24.2666 30.3296 24.2666 30.1685V23.5116C24.2665 23.403 24.2954 23.2963 24.3505 23.2027C24.4056 23.1091 24.4847 23.0319 24.5797 22.9793H32.9901C33.2573 22.9785 33.5221 23.0305 33.7692 23.1323C34.0163 23.2341 34.2408 23.3837 34.4299 23.5725C34.619 23.7613 34.769 23.9856 34.8712 24.2326C34.9733 24.4795 35.0257 24.7442 35.0253 25.0114Z" stroke="#4D2C19" stroke-width="1.56558" stroke-miterlimit="10"/>
<path d="M30.6564 8.47228V20.5836C30.6569 20.6631 30.6415 20.7419 30.6113 20.8154C30.5811 20.8889 30.5366 20.9556 30.4804 21.0118C30.4242 21.068 30.3574 21.1126 30.2839 21.1428C30.2104 21.173 30.1316 21.1884 30.0521 21.1879H23.3984C23.3188 21.1879 23.2399 21.2037 23.1664 21.2342C23.0929 21.2648 23.0261 21.3096 22.97 21.3661C22.9138 21.4225 22.8694 21.4895 22.8392 21.5632C22.809 21.6368 22.7937 21.7157 22.7941 21.7954V28.446C22.7941 28.6071 22.7301 28.7616 22.6162 28.8755C22.5022 28.9894 22.3477 29.0534 22.1866 29.0534H10.0753C9.99551 29.0534 9.91651 29.0377 9.84281 29.0072C9.76912 28.9766 9.70217 28.9319 9.64576 28.8755C9.58935 28.8191 9.54459 28.7521 9.51406 28.6784C9.48354 28.6047 9.46783 28.5258 9.46783 28.446V21.7954C9.46825 21.7157 9.45292 21.6368 9.42273 21.5632C9.39255 21.4895 9.34809 21.4225 9.29194 21.3661C9.23578 21.3096 9.16903 21.2648 9.09551 21.2342C9.02199 21.2037 8.94315 21.1879 8.86352 21.1879H2.20979C2.13031 21.1884 2.05154 21.173 1.97803 21.1428C1.90452 21.1126 1.83775 21.068 1.78155 21.0118C1.72535 20.9556 1.68084 20.8889 1.65062 20.8154C1.62039 20.7419 1.60506 20.6631 1.60548 20.5836V8.47228C1.60506 8.39266 1.62039 8.31372 1.65058 8.24004C1.68076 8.16636 1.7252 8.09938 1.78136 8.04293C1.83751 7.98648 1.90428 7.9417 1.9778 7.91114C2.05132 7.88057 2.13017 7.86481 2.20979 7.86481H8.86352C8.94315 7.86481 9.02199 7.84909 9.09551 7.81853C9.16903 7.78796 9.23578 7.74318 9.29194 7.68674C9.34809 7.63029 9.39255 7.56327 9.42273 7.48959C9.45292 7.4159 9.46825 7.33701 9.46783 7.25739V0.606794C9.46783 0.527024 9.48354 0.448026 9.51406 0.374327C9.54459 0.300628 9.58935 0.23366 9.64576 0.177253C9.70217 0.120847 9.76912 0.0761045 9.84281 0.0455775C9.91651 0.0150505 9.99551 -0.000671387 10.0753 -0.000671387H22.1866C22.3477 -0.000671387 22.5022 0.0633349 22.6162 0.177253C22.7301 0.291171 22.7941 0.44569 22.7941 0.606794V7.25739C22.7937 7.33701 22.809 7.4159 22.8392 7.48959C22.8694 7.56327 22.9138 7.63029 22.97 7.68674C23.0261 7.74318 23.0929 7.78796 23.1664 7.81853C23.2399 7.84909 23.3188 7.86481 23.3984 7.86481H30.0521C30.1318 7.86481 30.2106 7.88057 30.2841 7.91114C30.3576 7.9417 30.4244 7.98648 30.4806 8.04293C30.5367 8.09938 30.5812 8.16636 30.6113 8.24004C30.6415 8.31372 30.6569 8.39266 30.6564 8.47228Z" fill="white"/>
<path d="M32.1314 10.1879V22.2993C32.1306 22.4598 32.0663 22.6135 31.9524 22.7267C31.8386 22.84 31.6846 22.9036 31.524 22.9036H24.8734C24.7126 22.9044 24.5585 22.9687 24.4448 23.0824C24.331 23.1961 24.2668 23.3502 24.266 23.511V30.1491C24.266 30.2288 24.2502 30.3078 24.2197 30.3815C24.1892 30.4552 24.1444 30.5222 24.088 30.5786C24.0316 30.635 23.9647 30.6798 23.891 30.7103C23.8173 30.7408 23.7383 30.7565 23.6585 30.7565H11.5409C11.4611 30.7565 11.3821 30.7408 11.3084 30.7103C11.2347 30.6798 11.1678 30.635 11.1114 30.5786C11.055 30.5222 11.0102 30.4552 10.9797 30.3815C10.9492 30.3078 10.9334 30.2288 10.9334 30.1491V23.511C10.9336 23.4024 10.9047 23.2957 10.8496 23.2021C10.7945 23.1085 10.7153 23.0313 10.6203 22.9787C10.5308 22.9304 10.4309 22.9046 10.3291 22.9036H3.68167C3.5211 22.9036 3.36706 22.84 3.25323 22.7267C3.1394 22.6135 3.07505 22.4598 3.07422 22.2993V10.1879C3.07422 10.1083 3.08994 10.0294 3.12051 9.95592C3.15107 9.8824 3.19587 9.81562 3.25232 9.75946C3.30876 9.70331 3.37575 9.65885 3.44943 9.62867C3.52311 9.59848 3.60204 9.58315 3.68167 9.58356H10.3323C10.412 9.58356 10.491 9.56788 10.5647 9.53735C10.6384 9.50683 10.7054 9.46208 10.7618 9.40568C10.8182 9.34927 10.8629 9.2823 10.8935 9.2086C10.924 9.1349 10.9397 9.05591 10.9397 8.97614V2.32241C10.9405 2.16185 11.0049 2.00814 11.1187 1.89489C11.2326 1.78165 11.3866 1.71808 11.5472 1.71808H23.6585C23.8191 1.71808 23.9731 1.78165 24.0869 1.89489C24.2008 2.00814 24.2651 2.16185 24.266 2.32241V8.97614C24.266 9.05591 24.2817 9.1349 24.3122 9.2086C24.3427 9.2823 24.3875 9.34927 24.4439 9.40568C24.5003 9.46208 24.5672 9.50683 24.6409 9.53735C24.7146 9.56788 24.7936 9.58356 24.8734 9.58356H31.524C31.6036 9.58315 31.6825 9.59848 31.7562 9.62867C31.8299 9.65885 31.8969 9.70331 31.9533 9.75946C32.0098 9.81562 32.0546 9.8824 32.0851 9.95592C32.1157 10.0294 32.1314 10.1083 32.1314 10.1879Z" stroke="#4D2C19" stroke-width="1.56558" stroke-miterlimit="10"/>
</svg>
