<svg width="44" height="41" viewBox="0 0 44 41" fill="none" xmlns="http://www.w3.org/2000/svg">
<path opacity="0.5" d="M35.6859 28.2847C35.6248 28.6358 35.5603 28.9868 35.4959 29.3378C35.4444 29.618 35.3929 29.9014 35.3381 30.1815H8.26474C8.20034 29.8788 8.13271 29.5793 8.06831 29.2895C7.98136 28.903 7.90084 28.5263 7.82034 28.1559C6.62881 22.501 6.25848 18.7075 8.65764 16.7366C10.5576 15.1683 13.8617 15.0298 16.1836 15.8124C19.1881 16.83 19.5971 19.052 21.8288 19.0327C24.0605 19.0134 24.2795 16.8654 27.4708 15.8124C29.3676 15.1876 32.2273 15.0459 34.0597 16.2761C36.929 18.2018 36.5909 23.0646 35.6859 28.2847Z" fill="white"/>
<path opacity="0.5" d="M21.8047 7.08434V1.12671" stroke="white" stroke-width="1.61017" stroke-miterlimit="10" stroke-linecap="round"/>
<path opacity="0.5" d="M39.0312 9.37719L41.9231 4.16669" stroke="white" stroke-width="1.61017" stroke-miterlimit="10" stroke-linecap="round"/>
<path opacity="0.5" d="M5.67999 11.2263L1.53809 6.94183" stroke="white" stroke-width="1.61017" stroke-miterlimit="10" stroke-linecap="round"/>
<path opacity="0.5" d="M39.408 34.0213C39.408 35.6441 38.7634 37.2004 37.6159 38.3479C36.4685 39.4953 34.9122 40.14 33.2894 40.14H9.78091C8.41469 40.1389 7.08812 39.6806 6.01258 38.8382C4.93704 37.9957 4.1744 36.8175 3.84618 35.4913C3.51797 34.1651 3.64306 32.7671 4.20151 31.5203C4.75997 30.2734 5.71967 29.2493 6.9277 28.6111C7.01143 29.0105 7.09837 29.4195 7.18854 29.8349C7.25617 30.1569 7.32701 30.479 7.39785 30.801H36.0267C36.0846 30.4983 36.1394 30.1924 36.1941 29.8896C36.2618 29.5096 36.3294 29.1296 36.3938 28.7496C37.3116 29.29 38.0724 30.0606 38.6011 30.9852C39.1297 31.9097 39.4079 32.9563 39.408 34.0213Z" fill="white"/>
<path d="M36.7129 28.4276C36.6485 28.8076 36.5809 29.1876 36.5133 29.5676C36.4585 29.8704 36.4038 30.1763 36.3458 30.479H7.72022C7.64937 30.1569 7.57854 29.8349 7.51091 29.5129C7.42074 29.0975 7.33379 28.6885 7.25006 28.2891C5.98769 22.1705 5.59803 18.0742 8.13566 15.9424C10.1451 14.2485 13.6392 14.0971 16.0931 14.9441C19.2716 16.0422 19.7031 18.4478 22.0636 18.4285C24.4241 18.4091 24.656 16.0873 28.0309 14.9441C30.034 14.2678 33.0611 14.1165 34.9965 15.4432C38.0333 17.5268 37.6726 22.7856 36.7129 28.4276Z" stroke="#4D2C19" stroke-width="1.61017" stroke-miterlimit="10" stroke-dasharray="1.93 1.93"/>
<path d="M20.8389 17.9916C23.2721 19.8006 26.2703 20.6831 29.2955 20.481" stroke="#4D2C19" stroke-width="1.61017" stroke-miterlimit="10" stroke-dasharray="1.93 1.93"/>
<path d="M39.7293 33.6993C39.7293 35.3221 39.0847 36.8784 37.9372 38.0259C36.7898 39.1733 35.2334 39.818 33.6107 39.818H10.1022C8.73598 39.8169 7.40941 39.3586 6.33387 38.5161C5.25833 37.6737 4.49569 36.4955 4.16747 35.1693C3.83926 33.843 3.96435 32.4451 4.5228 31.1982C5.08126 29.9514 6.04096 28.9273 7.24899 28.2891C7.33272 28.6884 7.41966 29.0974 7.50983 29.5129C7.57746 29.8349 7.6483 30.1569 7.71914 30.479H36.348C36.4059 30.1763 36.4607 29.8703 36.5154 29.5676C36.5831 29.1876 36.6507 28.8076 36.7151 28.4276C37.6329 28.968 38.3937 29.7386 38.9223 30.6631C39.451 31.5877 39.7292 32.6343 39.7293 33.6993Z" stroke="#4D2C19" stroke-width="1.61017" stroke-miterlimit="10" stroke-linecap="round"/>
<path d="M22.4492 7.4063V1.44867" stroke="#4D2C19" stroke-width="1.61017" stroke-miterlimit="10" stroke-linecap="round"/>
<path d="M39.6758 9.69915L42.5676 4.48865" stroke="#4D2C19" stroke-width="1.61017" stroke-miterlimit="10" stroke-linecap="round"/>
<path d="M6.38507 11.3707L2.24316 7.08618" stroke="#4D2C19" stroke-width="1.61017" stroke-miterlimit="10" stroke-linecap="round"/>
</svg>
