<svg width="35" height="40" viewBox="0 0 35 40" fill="none" xmlns="http://www.w3.org/2000/svg">
<path d="M28.1349 10.6795C28.1322 12.9202 27.443 15.1062 26.1602 16.9434C24.8773 18.7805 23.0624 20.1805 20.9597 20.9548C18.8571 21.7291 16.5676 21.8406 14.3997 21.2742C12.2317 20.7079 10.2894 19.4908 8.83409 17.787C7.36302 15.44 6.83489 12.623 7.35582 9.90246C7.87676 7.18189 9.40816 4.75933 11.6422 3.1217C13.8763 1.48407 16.6474 0.752735 19.3986 1.07472C22.1499 1.3967 24.6772 2.74813 26.4728 4.85736C27.566 6.60195 28.1423 8.62069 28.1349 10.6795Z" fill="white"/>
<path d="M29.0768 11.9651C29.0764 14.5385 28.1705 17.0297 26.5178 19.0023C24.8652 20.9748 22.5711 22.303 20.0375 22.754C17.504 23.2051 14.8925 22.7502 12.6606 21.4692C10.4287 20.1882 8.71871 18.1627 7.83022 15.7476C6.94173 13.3324 6.9314 10.6816 7.80104 8.25963C8.67067 5.83763 10.3648 3.79883 12.5867 2.50046C14.8085 1.20209 17.4164 0.726933 19.9534 1.15822C22.4904 1.5895 24.7947 2.89972 26.4627 4.85936C28.1503 6.84229 29.077 9.36121 29.0768 11.9651Z" stroke="#4D2C19" stroke-width="0.936934" stroke-miterlimit="10"/>
<path opacity="0.5" d="M25.0497 12.0082C24.3582 15.8365 20.974 18.5667 17.2507 18.4318C13.8252 18.31 10.827 15.7934 10.0625 12.3136L25.0497 12.0082Z" fill="white"/>
<path d="M25.5653 13.0345C24.8739 16.8647 21.4897 19.5931 17.7663 19.4582C14.3409 19.3364 11.3427 16.8216 10.5781 13.3419L25.5653 13.0345Z" stroke="#4D2C19" stroke-width="0.936934" stroke-miterlimit="10" stroke-linecap="round"/>
<path d="M13.4998 24.0915C14.8427 26.0903 16.1857 28.0929 17.5286 30.0992L21.8197 23.9154H27.951C27.951 23.9154 33.2766 25.3489 33.329 32.9456V37.3923H1.48828L1.56699 30.6463C1.56699 30.6463 1.95113 24.65 7.36286 24.0878L13.4998 24.0915Z" fill="white"/>
<path opacity="0.5" d="M26.2572 36.0957C27.9999 36.0957 29.4127 34.6829 29.4127 32.9401C29.4127 31.1974 27.9999 29.7845 26.2572 29.7845C24.5144 29.7845 23.1016 31.1974 23.1016 32.9401C23.1016 34.6829 24.5144 36.0957 26.2572 36.0957Z" fill="white"/>
<path d="M7.75563 36.6425H5.44141V29.9284C5.44149 29.6059 5.52549 29.2889 5.68517 29.0087C5.84484 28.7284 6.07468 28.4946 6.35211 28.3301L10.0436 26.147V22.7328" stroke="#4D2C19" stroke-width="0.936934" stroke-miterlimit="10" stroke-linecap="round"/>
<path d="M12.2255 36.6423H14.5397V29.812C14.5399 29.5248 14.4651 29.2426 14.3228 28.9932C14.1805 28.7438 13.9756 28.5358 13.7283 28.3898L9.9375 26.1411V22.7269" stroke="#4D2C19" stroke-width="0.936934" stroke-miterlimit="10" stroke-linecap="round"/>
<path d="M27.3086 22.5492V30.0372" stroke="#4D2C19" stroke-width="0.936934" stroke-miterlimit="10"/>
<path d="M26.9994 36.6428C28.9451 36.6428 30.5223 35.0655 30.5223 33.1199C30.5223 31.1743 28.9451 29.597 26.9994 29.597C25.0538 29.597 23.4766 31.1743 23.4766 33.1199C23.4766 35.0655 25.0538 36.6428 26.9994 36.6428Z" stroke="#4D2C19" stroke-width="0.936934" stroke-miterlimit="10"/>
<path d="M34.4331 37.6319V31.2477C34.3896 29.9784 34.1565 28.7228 33.7417 27.5224C32.3381 23.6004 29.4093 22.8377 28.9633 22.7328H22.356L18.9062 28.5549V39.2809" stroke="#4D2C19" stroke-width="0.936934" stroke-miterlimit="10" stroke-linecap="round"/>
<path d="M17.2837 28.555L13.6952 22.7328H6.87622C6.51269 22.7703 3.35147 23.1751 1.8505 26.9903C1.40237 28.1825 1.1597 29.4421 1.13281 30.7155V37.632" stroke="#4D2C19" stroke-width="0.936934" stroke-miterlimit="10" stroke-linecap="round"/>
</svg>
